<?xml version="1.0" encoding="iso-8859-1"?>
<!-- Generator: Adobe Illustrator 24.1.2, SVG Export Plug-In . SVG Version: 6.00 Build 0)  -->
<svg version="1.1" id="Layer_1" xmlns="http://www.w3.org/2000/svg" xmlns:xlink="http://www.w3.org/1999/xlink" x="0px" y="0px"
	 width="391.744px" height="302.284px" viewBox="0 0 391.744 302.284" enable-background="new 0 0 391.744 302.284"
	 xml:space="preserve">
<g>
	<path fill="#FFFFFF" d="M185.709,73.059c-9.152-0.265-37.853,0.377-34.295-14.339c5.574-13.142,21.904-9.06,32.827-11.395
		c1.359-0.289,2.084-0.663,2.11-1.221c0.353-7.566,0.512-27.327,3.775-32.423c4.48-6.315,13.719-3.899,17.825,2.665
		c2.09,3.342,3.211,15.318,3.291,16.195c0.947,10.266-0.248,12.268,1.202,12.752c9.867,0.867,25.031-0.299,27.948,11.949
		c1.75,8.749-6.999,13.414-13.779,14.489c-3.834,0.703-6.484,0.534-15.427,0.679c-0.793,9.926,1.642,83.052-0.484,117.136
		c-0.326,5.217,1.392,14.96-6.267,22.188c-4.142,2.922-15.475,5.343-17.898-7.726C179.823,175.845,186.215,83.791,185.709,73.059z"
		/>
	<g>
		<g>
			<path fill="#FFFFFF" d="M334.055,104.38c6.413,5.344,0.469,10.649-3.708,16.527c-21.648,34.637-20.494,73.394-28.811,111.037
				c-2.694,8.99-13.365-0.364-18.889-2.467c-31.365-11.942-66.401,8.9-80.972,16.933c-20.86,11.502,13.677-29.073,52.451-31.099
				c10.285-0.537,21.05,1.462,30.541,4.309c-8.309-74.785,35.124-109.443,37.221-112.378c-24.912-3.114-30.332-8.575-93.025,1.991
				c-8.56,1.443,6.576-7.089,31.511-11.358C289.55,92.881,326.861,97.186,334.055,104.38z"/>
			<path fill="#FFFFFF" d="M334.012,130.353c-1.18-0.216-3.657-1.673-3.18-2.963c1.165-3.155,24.08,0.719,29.07,5.435
				c5.33,5.037-1.066,2.665-11.999,24.985c-33.703,75.441-15.978,105.567-31.35,106.088c-10.01,0.339-33.679-21.281-74.783-15.102
				c-1.399,0.21-2.121-1.623-0.947-2.413c18.755-12.623,48.66-3.66,68.896,4.016c0.268-7.516,0.939-14.931,1.938-22.289
				C326.165,121.263,382.35,139.192,334.012,130.353z"/>
			<path fill="#FFFFFF" d="M329.998,284.353c2.571-34.593,6.407-61.184,40.498-108.699c1.144-1.595-9.225-5.706-12.52-10.424
				c-0.79-1.131,0.074-2.687,1.717-2.089c6.71,2.445,6.41,2.541,14.483,7.679c12.907,8.215,8.76,6.255-8.295,39.481
				c-29.922,58.293-19.293,85.424-34.043,81.632c-1.902-0.489-43.403-28.666-73.721-18.848c-0.545,0.176-1.146,0.109-1.613-0.224
				c-0.01-0.008-0.021-0.015-0.031-0.023c-1.039-0.751-0.989-2.337,0.086-3.035C279.028,255.221,308.365,267.437,329.998,284.353z"
				/>
		</g>
		<g>
			<path fill="#FFFFFF" d="M57.689,104.38c-6.413,5.344-0.469,10.649,3.708,16.527c21.648,34.637,20.494,73.394,28.811,111.037
				c2.694,8.99,13.365-0.364,18.889-2.467c31.365-11.942,66.401,8.9,80.972,16.933c20.86,11.502-13.677-29.073-52.451-31.099
				c-10.285-0.537-21.05,1.462-30.541,4.309c8.309-74.785-35.124-109.443-37.221-112.378c24.912-3.114,30.332-8.575,93.025,1.991
				c8.56,1.443-6.576-7.089-31.512-11.358C102.194,92.881,64.882,97.186,57.689,104.38z"/>
			<path fill="#FFFFFF" d="M57.731,130.353c1.18-0.216,3.657-1.673,3.18-2.963c-1.165-3.155-24.08,0.719-29.07,5.435
				c-5.33,5.037,1.066,2.665,11.999,24.985c33.703,75.441,15.978,105.567,31.35,106.088c10.01,0.339,33.679-21.281,74.783-15.102
				c1.399,0.21,2.121-1.623,0.947-2.413c-18.755-12.623-48.66-3.66-68.896,4.016c-0.268-7.516-0.939-14.931-1.938-22.289
				C65.579,121.263,9.393,139.192,57.731,130.353z"/>
			<path fill="#FFFFFF" d="M61.745,284.353c-2.571-34.593-6.407-61.184-40.499-108.699c-1.144-1.595,9.226-5.706,12.521-10.424
				c0.79-1.131-0.074-2.687-1.717-2.089c-6.71,2.445-6.41,2.541-14.483,7.679c-12.907,8.215-8.76,6.255,8.295,39.481
				c29.921,58.293,19.293,85.424,34.043,81.632c1.902-0.489,43.403-28.666,73.721-18.848c0.545,0.176,1.147,0.109,1.613-0.224
				c0.01-0.008,0.021-0.015,0.031-0.023c1.039-0.751,0.989-2.337-0.086-3.035C112.715,255.221,83.379,267.437,61.745,284.353z"/>
		</g>
	</g>
</g>
</svg>
