<?xml version="1.0" encoding="iso-8859-1"?>
<!-- Generator: Adobe Illustrator 24.1.2, SVG Export Plug-In . SVG Version: 6.00 Build 0)  -->
<svg version="1.1" id="Layer_1" xmlns="http://www.w3.org/2000/svg" xmlns:xlink="http://www.w3.org/1999/xlink" x="0px" y="0px"
	 width="306.051px" height="306.051px" viewBox="0 0 306.051 306.051" enable-background="new 0 0 306.051 306.051"
	 xml:space="preserve">
<g>
	<g>
		<path fill="#FFFFFF" d="M227.149,99.332c-8.542-21.961-36.586-46.999-66.725-51.405c-5.851-0.856-7.152,7.993-1.294,8.85
			c27.047,3.954,52.35,26.945,59.684,45.798C220.959,108.091,229.292,104.844,227.149,99.332z"/>
		<path fill="#FFFFFF" d="M238.36,166.911c3.953-13.362,4.27-34.287-1.717-48.144c-2.345-5.427-10.559-1.889-8.211,3.547
			c5.648,13.073,4.19,32.465,1.351,42.06c-11.391,38.501-61.932,59.048-66.723,104.105c-0.625,5.882,8.268,6.833,8.894,0.946
			C176.328,228.303,226.152,208.175,238.36,166.911z"/>
		<path fill="#FFFFFF" d="M216.164,48.148c-4.698-3.588-10.133,3.517-5.426,7.11c31.974,24.403,51.2,64.541,50.176,104.75
			c-0.15,5.911,8.79,6.146,8.941,0.227C270.95,117.21,250.377,74.261,216.164,48.148z"/>
		<path fill="#FFFFFF" d="M284.757,97.375C253.877,24.365,169.748-9.318,97.372,21.294C24.201,52.242-9.26,136.448,21.291,208.678
			c30.948,73.169,115.152,106.633,187.384,76.081C281.685,253.879,315.369,169.75,284.757,97.375z M157.496,286.977V140.661h41.995
			c5.913,0,5.921-8.944,0-8.944h-41.995V82.521c0-5.913-8.944-5.921-8.944,0v49.196h-41.995c-5.913,0-5.921,8.944,0,8.944h41.995
			v146.316c-71.84-2.367-129.554-61.544-129.554-133.95c0-73.902,60.124-134.026,134.026-134.026
			c73.902,0,134.026,60.124,134.026,134.026C287.05,225.433,229.336,284.61,157.496,286.977z"/>
		<path fill="#FFFFFF" d="M254.551,180.103c-9.802,23.824-27.32,44.318-49.328,57.706c-3.849,2.341-2.184,8.293,2.329,8.293
			c4.431,0,38.851-22.686,55.271-62.596C265.071,178.038,256.803,174.627,254.551,180.103z"/>
		<path fill="#FFFFFF" d="M193.979,247.045c-2.719,0-5.323,2.39-5.197,5.197c0.126,2.816,2.283,5.197,5.197,5.197c2.718,0,5.323-2.391,5.197-5.197
			C199.05,249.426,196.893,247.045,193.979,247.045z"/>
		<path fill="#FFFFFF" d="M198.765,47.149c2.718,0,5.323-2.39,5.197-5.197c-0.126-2.816-2.284-5.197-5.197-5.197c-2.719,0-5.323,2.391-5.197,5.197
			C193.694,44.767,195.852,47.149,198.765,47.149z"/>
	</g>
</g>
</svg>
